<svg xmlns="http://www.w3.org/2000/svg" viewBox="0 0 1200 750" role="img" aria-label="Illustrative SEO dashboard">
  <defs>
    <linearGradient id="bg" x1="0" y1="0" x2="0" y2="1">
      <stop offset="0" stop-color="#F5F1EB"/>
      <stop offset="1" stop-color="#EBE5DA"/>
    </linearGradient>
    <linearGradient id="ember" x1="0" y1="0" x2="1" y2="0">
      <stop offset="0" stop-color="#EA5B2E"/>
      <stop offset="1" stop-color="#D14B22"/>
    </linearGradient>
  </defs>
  <rect width="1200" height="750" fill="url(#bg)"/>
  <!-- Top bar -->
  <rect x="0" y="0" width="1200" height="56" fill="#0A0A0A"/>
  <circle cx="24" cy="28" r="6" fill="#EA5B2E"/>
  <rect x="42" y="22" width="120" height="12" rx="2" fill="#F5F1EB" opacity="0.85"/>
  <rect x="1000" y="18" width="180" height="20" rx="10" fill="#1F2937"/>
  <!-- Sidebar -->
  <rect x="0" y="56" width="220" height="694" fill="#F5F1EB"/>
  <rect x="24" y="88" width="172" height="34" rx="6" fill="#0A0A0A"/>
  <rect x="24" y="132" width="172" height="34" rx="6" fill="#0A0A0A" opacity="0.06"/>
  <rect x="24" y="176" width="172" height="34" rx="6" fill="#0A0A0A" opacity="0.06"/>
  <rect x="24" y="220" width="172" height="34" rx="6" fill="#0A0A0A" opacity="0.06"/>
  <!-- Main headline -->
  <text x="260" y="112" fill="#0A0A0A" font-family="Satoshi, sans-serif" font-size="30" font-weight="900">Organic performance</text>
  <text x="260" y="140" fill="#575757" font-family="Satoshi, sans-serif" font-size="14" font-weight="500">Last 90 days · vs. previous 90</text>
  <!-- KPI row -->
  <rect x="260" y="170" width="270" height="120" rx="10" fill="#FFFFFF" stroke="#0A0A0A" stroke-opacity="0.08"/>
  <text x="284" y="204" fill="#575757" font-family="Satoshi, sans-serif" font-size="12" font-weight="700">CLICKS</text>
  <text x="284" y="256" fill="#0A0A0A" font-family="Satoshi, sans-serif" font-size="42" font-weight="900">18,412</text>
  <text x="284" y="278" fill="#EA5B2E" font-family="Satoshi, sans-serif" font-size="12" font-weight="700">▲ 34%</text>
  <rect x="550" y="170" width="270" height="120" rx="10" fill="#FFFFFF" stroke="#0A0A0A" stroke-opacity="0.08"/>
  <text x="574" y="204" fill="#575757" font-family="Satoshi, sans-serif" font-size="12" font-weight="700">IMPRESSIONS</text>
  <text x="574" y="256" fill="#0A0A0A" font-family="Satoshi, sans-serif" font-size="42" font-weight="900">421K</text>
  <text x="574" y="278" fill="#EA5B2E" font-family="Satoshi, sans-serif" font-size="12" font-weight="700">▲ 52%</text>
  <rect x="840" y="170" width="270" height="120" rx="10" fill="#FFFFFF" stroke="#0A0A0A" stroke-opacity="0.08"/>
  <text x="864" y="204" fill="#575757" font-family="Satoshi, sans-serif" font-size="12" font-weight="700">AVG POSITION</text>
  <text x="864" y="256" fill="#0A0A0A" font-family="Satoshi, sans-serif" font-size="42" font-weight="900">6.4</text>
  <text x="864" y="278" fill="#EA5B2E" font-family="Satoshi, sans-serif" font-size="12" font-weight="700">▲ 2.1 pos</text>
  <!-- Chart -->
  <rect x="260" y="320" width="850" height="380" rx="10" fill="#FFFFFF" stroke="#0A0A0A" stroke-opacity="0.08"/>
  <text x="284" y="356" fill="#0A0A0A" font-family="Satoshi, sans-serif" font-size="16" font-weight="700">Top movers</text>
  <text x="284" y="376" fill="#575757" font-family="Satoshi, sans-serif" font-size="12">query · position change · click delta</text>
  <!-- Bars -->
  <rect x="284" y="400" width="500" height="24" rx="2" fill="#EA5B2E" opacity="0.9"/>
  <text x="800" y="418" fill="#0A0A0A" font-family="Satoshi, sans-serif" font-size="13" font-weight="700">+412</text>
  <rect x="284" y="440" width="420" height="24" rx="2" fill="#EA5B2E" opacity="0.75"/>
  <text x="720" y="458" fill="#0A0A0A" font-family="Satoshi, sans-serif" font-size="13" font-weight="700">+318</text>
  <rect x="284" y="480" width="360" height="24" rx="2" fill="#EA5B2E" opacity="0.6"/>
  <text x="660" y="498" fill="#0A0A0A" font-family="Satoshi, sans-serif" font-size="13" font-weight="700">+271</text>
  <rect x="284" y="520" width="290" height="24" rx="2" fill="#EA5B2E" opacity="0.5"/>
  <text x="590" y="538" fill="#0A0A0A" font-family="Satoshi, sans-serif" font-size="13" font-weight="700">+198</text>
  <rect x="284" y="560" width="230" height="24" rx="2" fill="#0A0A0A" opacity="0.7"/>
  <text x="530" y="578" fill="#0A0A0A" font-family="Satoshi, sans-serif" font-size="13" font-weight="700">+152</text>
  <rect x="284" y="600" width="180" height="24" rx="2" fill="#0A0A0A" opacity="0.55"/>
  <text x="480" y="618" fill="#0A0A0A" font-family="Satoshi, sans-serif" font-size="13" font-weight="700">+94</text>
  <rect x="284" y="640" width="120" height="24" rx="2" fill="#0A0A0A" opacity="0.4"/>
  <text x="420" y="658" fill="#0A0A0A" font-family="Satoshi, sans-serif" font-size="13" font-weight="700">+61</text>
</svg>
